<?xml version="1.0" encoding="UTF-8"?>
<svg id="Capa_2" data-name="Capa 2" xmlns="http://www.w3.org/2000/svg" viewBox="0 0 1440.8 274.51">
  <g id="Capa_1-2" data-name="Capa 1">
    <g>
      <g>
        <path d="m127.34,149.56c-16.1-2.01-46.79,25.53-58.69,52.97-3.06,7.06-8.75,20.66-4.48,34.29.96,3.06,6.55,19.26,26.2,22.13.28.04.55.08.83.11,13.7,1.71,32.95-2.99,44.58-15.82,11.52-12.71,12.24-29.57,12.28-35.99,0-1.8-.02-3.54-.09-5.19-.61-17.13-3.93-36.4-13.75-48.92-2.05-2.61-4-3.08-6.24-3.49-.21-.04-.42-.07-.64-.1" fill="#f64e85"/>
        <path d="m71.71,85.2c-7.4-.92-20.13-1.75-35.26,5.62-3.69,1.8-23.38,11.8-32.16,31.62-6.14,13.86-6.58,31.7,4.67,39.48,3.35,2.31,7.41,3.53,11.65,4.06,9.61,1.2,20.09-1.15,25.06-2.38,2.01-.5,3.95-1.03,5.82-1.55,19.29-5.45,41.77-14.13,58.54-27.18,3.5-2.72,4.59-4.74,5.67-7.03,7.7-16.2-14.58-38.62-42.22-42.39-.55-.07-1.14-.15-1.76-.23" fill="#f78a4c"/>
        <path d="m180.34.34c-13.7-1.71-32.95,3-44.58,15.83-11.53,12.71-12.25,29.57-12.28,35.99-.02,1.8.03,3.53.08,5.19.62,17.12,3.94,36.4,13.77,48.92,2.04,2.61,3.99,3.09,6.24,3.49.21.04.43.07.64.1,16.1,2.01,46.78-25.53,58.67-52.96,3.07-7.07,8.76-20.67,4.48-34.29-.96-3.06-6.54-19.27-26.18-22.14-.28-.04-.55-.08-.83-.11" fill="#a0f0fd"/>
        <path d="m250.92,93.43c-9.6-1.2-20.09,1.15-25.05,2.39-2,.49-3.96,1.03-5.82,1.55-19.31,5.46-41.77,14.14-58.55,27.19-3.49,2.72-4.57,4.73-5.67,7.03-7.69,16.2,14.59,38.62,42.23,42.38.57.08,1.19.16,1.85.24,7.4.92,20.09,1.71,35.18-5.64,3.69-1.8,23.37-11.79,32.15-31.61,6.14-13.86,6.59-31.7-4.66-39.47-3.35-2.31-7.42-3.53-11.66-4.06" fill="#8732f8"/>
        <path d="m173.13,177.53c-1.22-.15-2.45-.24-3.68-.26-1.93-.03-3,.47-4.19,1.1-8.41,4.45-12.31,22.21-7.36,33.63,1.26,2.9,3.78,8.42,10.89,10.68.54.17,1.87.57,3.8.81,3.8.47,9.9.33,16.63-3.43,7.09-3.96,14.46-11.69,14.99-19.09.51-7.19-5.53-11.96-7.94-13.69-.67-.49-1.34-.94-1.99-1.37-5.86-3.82-13.25-7.4-21.15-8.38" fill="#cb4a74"/>
        <path d="m65.43,167.76c-7.37-.92-18.6,1.44-27.86,6.69-3.6,2.04-10.48,6.05-15.02,13.57-1.02,1.69-6.31,10.82-2.87,19.02,1.9,4.52,6.37,8.55,12.15,9.27,1.55.19,3.2.15,4.92-.19,7.89-1.54,14.93-8.74,17.55-11.57.73-.79,1.43-1.57,2.09-2.32,6.84-7.79,13.91-17.48,16.7-26.47.58-1.87.31-2.77-.05-3.74-.89-2.38-3.71-3.78-7.61-4.27" fill="#d4ed77"/>
        <path d="m98.94,35.91c-3.8-.47-9.9-.33-16.64,3.43-7.09,3.96-14.46,11.69-14.98,19.09-.51,7.19,5.53,11.96,7.94,13.7.68.49,1.35.94,2,1.36,5.86,3.82,13.26,7.4,21.16,8.39,1.21.15,2.43.24,3.66.26,1.93.03,3.01-.48,4.2-1.11,8.41-4.44,12.3-22.2,7.35-33.62-1.26-2.9-3.77-8.42-10.89-10.68-.54-.17-1.87-.57-3.79-.81" fill="#ffd331"/>
        <path d="m239.7,43.08c-1.55-.19-3.2-.15-4.92.19-7.88,1.55-14.92,8.75-17.54,11.57-.74.8-1.44,1.57-2.1,2.32-6.83,7.78-13.9,17.47-16.69,26.47-.59,1.88-.33,2.78.04,3.75.89,2.38,3.72,3.78,7.62,4.27,7.38.92,18.6-1.44,27.86-6.7,3.6-2.04,10.47-6.04,15.02-13.57,1.02-1.69,6.31-10.81,2.87-19.02-1.91-4.52-6.37-8.55-12.15-9.27" fill="#66a0d1"/>
      </g>
      <g>
        <path d="m348.87,216.15c-16.01,0-18.22-3.69-18.22-11.33,0-20.44.74-43.34.74-64.77,0-29.06-1.23-60.34-1.23-86.19,0-5.91,2.96-9.36,10.84-9.36,4.68,0,34.72.25,61.57.25h29.55c7.63,0,9.85,2.46,9.85,17.73,0,16.5-1.48,18.72-10.1,18.72-5.42-.25-23.15,0-39.16,0h-18.47v31.77c18.47-.25,33.25-.74,47.78-.74,7.39,0,11.57,1.97,11.57,20.44,0,11.82-2.46,15.51-9.11,15.76-18.72.99-31.03,1.23-50.24,1.48v49.99c0,12.07-2.22,16.25-25.37,16.25Z" fill="#fff"/>
        <path d="m517.81,91.29c36.94,0,60.58,23.15,60.58,61.81s-28.81,66.25-65.51,66.25-62.06-23.64-62.06-61.57c0-41.87,30.54-66.49,66.98-66.49Zm-2.96,88.66c13.05,0,21.92-9.85,21.92-25.86s-9.36-23.4-21.67-23.4c-13.05,0-22.9,9.11-22.9,26.1,0,15.27,10.59,23.15,22.66,23.15Z" fill="#fff"/>
        <path d="m644.88,55.83c9.11,0,11.08,5.66,11.08,17.48,0,4.43-.25,12.07-.49,21.92h30.29c8.13,0,9.6,3.45,9.6,17.48s-1.48,17.24-13.05,17.24h-27.83c0,10.1-.25,20.44-.25,31.03,0,15.27,5.42,19.7,17.73,22.16,5.17.99,6.4,4.19,6.4,10.1,0,14.28-4.68,25.86-13.79,25.86-42.6,0-51.72-26.84-51.72-55.66,0-12.81,0-23.64.25-33.49h-16.01c-7.88,0-9.6-3.69-9.6-17.24s1.48-17.48,9.6-17.48h16.75c.25-7.14.74-14.04.99-20.69.99-13.54,17.73-18.72,30.04-18.72Z" fill="#fff"/>
        <path d="m770.97,91.29c36.94,0,60.58,23.15,60.58,61.81s-28.81,66.25-65.51,66.25-62.06-23.64-62.06-61.57c0-41.87,30.54-66.49,66.98-66.49Zm-2.96,88.66c13.05,0,21.92-9.85,21.92-25.86s-9.36-23.4-21.67-23.4c-13.05,0-22.9,9.11-22.9,26.1,0,15.27,10.59,23.15,22.66,23.15Z" fill="#fff"/>
        <path d="m862.08,260.97c0-6.65,3.94-25.61,12.31-25.61,5.91,0,15.51,3.69,27.34,3.69,16.75,0,26.35-6.4,28.57-30.04.25-2.22.49-6.9.49-13.05-8.62,11.82-20.69,17.24-35.22,17.24-30.54,0-48.27-22.66-48.27-58.12,0-38.17,23.89-63.29,56.15-63.29,11.33,0,20.69,3.69,27.58,9.36v-1.48c0-8.62,9.36-10.59,27.34-10.59,11.57,0,14.78,3.45,14.78,13.05,0,13.05-3.69,80.78-6.4,107.62-4.93,48.76-26.6,64.77-62.06,64.77-12.07,0-24.63-1.97-32.75-3.94-7.14-1.97-9.85-3.94-9.85-9.6Zm47.28-85.45c8.37,0,19.7.25,20.93-39.16-4.19-4.19-11.57-7.14-18.72-7.14-16.01,0-22.16,10.34-22.16,22.41,0,13.3,7.63,23.89,19.95,23.89Z" fill="#fff"/>
        <path d="m1030.28,93.26c11.08,0,12.56,2.46,12.56,8.13,0,6.9-.74,17.24-1.72,28.07,6.4-24.13,18.22-37.43,37.68-37.43,4.68,0,7.39.74,10.34,2.22,2.71,1.23,4.43,3.2,4.43,6.9,0,9.85-7.39,37.43-16.5,37.43-2.96,0-6.4-1.97-14.28-1.97s-14.04,1.97-17.73,13.05c-1.97,6.4-2.71,15.51-2.71,40.63,0,21.67-4.68,26.6-26.6,26.6-9.36,0-15.76-2.71-15.76-12.81,0-20.69,1.48-79.79,1.48-99,0-9.85,5.66-11.82,28.81-11.82Z" fill="#fff"/>
        <path d="m1195.52,218.36c-11.33,0-13.3-4.19-13.79-10.34l-.74-8.87c-8.62,14.04-21.18,20.19-36.45,20.19-30.54,0-48.27-23.89-48.27-61.32,0-39.9,23.89-66.74,56.15-66.74,11.82,0,21.43,4.19,28.57,10.59,2.71-7.63,10.34-9.36,25.37-9.36,13.05,0,15.51,3.94,15.51,13.54,0,14.04-.25,27.83-.25,41.13,0,46.05,3.2,47.78,3.2,58.86,0,9.11-11.57,12.31-29.31,12.31Zm-37.19-38.42c8.37,0,19.7,0,20.93-41.62-4.19-4.43-11.57-7.63-18.72-7.63-16.01,0-22.16,11.08-22.16,23.89,0,14.04,7.63,25.37,19.95,25.37Z" fill="#fff"/>
        <path d="m1280.72,93.26c11.08,0,14.04,3.2,14.04,9.11,0,4.19-.25,9.36-.74,15.02,6.4-17.48,18.22-26.1,35.71-26.1s30.04,9.6,35.46,28.57c6.4-18.47,19.46-28.57,37.93-28.57,22.41,0,37.68,17.24,37.68,49.5,0,17.73-1.23,46.54-2.96,66-.74,7.88-3.45,10.59-12.31,10.59-25.86,0-28.81-3.94-28.81-14.04,0-16.5,1.97-16.75,1.97-39.65,0-24.13-4.43-33-14.78-33-15.27,0-16.99,15.51-17.24,35.22-.49,17.48-.99,27.34-.99,36.2,0,13.54-8.13,14.53-23.89,14.53-13.3,0-17.98-5.91-17.98-17.98,0-16.25,1.48-32.26,1.48-41.62,0-19.21-5.42-26.35-13.3-26.35-8.87,0-15.02,2.46-16.99,29.31-.99,8.62-.74,14.04-.74,29.55,0,23.15-2.96,27.34-22.16,27.34-16.75,0-20.19-3.69-20.19-14.53,0-24.13,1.48-69.2,1.48-95.55,0-11.57,5.42-13.54,27.34-13.54Z" fill="#fff"/>
      </g>
    </g>
  </g>
</svg>